<svg xmlns="http://www.w3.org/2000/svg" width="1395" height="218" viewBox="0 0 1395 218" version="1.1"><path d="M 737.601 42.594 C 722.534 46.240, 708.434 57.148, 702.177 70 C 696.447 81.768, 694.745 90.500, 694.672 108.500 C 694.573 133.093, 699.013 147.790, 710.076 159.487 C 716.697 166.487, 722.538 170.179, 732.500 173.659 C 740.067 176.303, 741.447 176.455, 758 176.477 C 773.580 176.497, 776.323 176.243, 783 174.161 C 806.006 166.987, 818.420 150.889, 822.069 123.500 C 823.522 112.590, 822.725 94.117, 820.409 85 C 814.706 62.555, 800.571 47.861, 779.540 42.515 C 771.741 40.532, 745.920 40.581, 737.601 42.594 M 1012 42.593 C 995.980 46.848, 983.697 56.240, 976.807 69.500 C 964.837 92.539, 965.809 132.543, 978.826 152.578 C 989.620 169.193, 1006.979 177, 1033.130 177 C 1066.107 177, 1086.096 163.536, 1094.012 135.993 C 1096.790 126.327, 1097.842 103.517, 1096.028 92.276 C 1091.644 65.098, 1077.745 48.830, 1053.540 42.547 C 1045.632 40.494, 1019.792 40.523, 1012 42.593 M 260.611 43.532 C 259.768 44.375, 258.839 46.512, 258.547 48.282 C 258.003 51.569, 243.984 173.888, 243.994 175.250 C 244.003 176.353, 257.439 176.164, 260.453 175.018 C 261.874 174.478, 263.420 173.015, 263.889 171.768 C 264.358 170.521, 267.067 149.250, 269.910 124.500 C 272.752 99.750, 275.398 78.023, 275.789 76.219 C 276.415 73.328, 278.701 78.753, 294.965 121.719 C 308.578 157.680, 314.142 171.223, 316.138 173.250 C 318.614 175.765, 319.488 176, 326.341 176 C 330.464 176, 334.567 175.719, 335.461 175.377 C 337.936 174.427, 339.339 171.071, 358.513 120.253 C 368.317 94.267, 376.461 73.128, 376.610 73.277 C 376.908 73.575, 388 167.494, 388 169.716 C 388 170.472, 389.105 172.195, 390.455 173.545 C 392.658 175.749, 393.740 176, 401.042 176 L 409.176 176 408.596 172.250 C 408.277 170.188, 404.852 140.850, 400.986 107.055 C 395.457 58.723, 393.609 45.225, 392.324 43.805 C 390.953 42.291, 389.055 42, 380.536 42 C 373.959 42, 369.802 42.440, 368.734 43.250 C 367.509 44.179, 343.143 105.652, 327.090 148.316 C 326.628 149.544, 320.140 133.835, 307.057 99.816 C 287.109 47.943, 285.493 44.011, 283.610 42.765 C 283 42.361, 277.920 42.024, 272.321 42.015 C 264.497 42.004, 261.789 42.354, 260.611 43.532 M 477.764 43.750 C 475.821 45.951, 424.024 174.691, 424.779 175.445 C 425.927 176.593, 440.198 175.944, 443.423 174.597 C 446.702 173.227, 447.209 172.115, 464.750 127.847 C 474.633 102.906, 483.744 79.385, 484.998 75.578 L 487.277 68.656 492.987 85.078 C 496.127 94.110, 500.790 106.899, 503.348 113.497 C 505.907 120.096, 508 125.822, 508 126.221 C 508 126.621, 501.207 127.072, 492.905 127.224 L 477.810 127.500 474.405 135.943 C 472.532 140.587, 471 144.524, 471 144.693 C 471 144.862, 481.125 145, 493.500 145 C 507.657 145, 516 145.366, 516 145.988 C 516 146.532, 518.299 152.875, 521.108 160.085 C 525.796 172.115, 526.492 173.308, 529.576 174.596 C 533.303 176.153, 549 176.554, 549 175.092 C 549 173.885, 501.202 50.350, 499.246 46.500 C 497.096 42.271, 496.467 42.032, 487.405 42.015 C 480.938 42.003, 478.999 42.352, 477.764 43.750 M 572.110 43.396 C 566.981 46.238, 567.073 44.974, 567.035 112.856 L 567 176.212 574.979 175.849 C 581.655 175.546, 583.328 175.116, 585.229 173.216 L 587.500 170.946 588 116.223 L 588.500 61.500 610.494 61.230 C 623.650 61.068, 634.605 61.399, 637.754 62.053 C 643.496 63.245, 648.224 66.598, 650.576 71.147 C 652.731 75.314, 653.444 85.544, 652.049 92.265 C 649.582 104.147, 644.304 106.773, 621.009 107.707 C 605.799 108.318, 605.467 108.379, 602.759 111.087 C 600.716 113.130, 600 114.831, 600 117.643 C 600 121.851, 598.603 120.368, 638.440 158.458 L 656.175 175.415 665.337 175.790 C 675.700 176.214, 679.230 174.902, 677.454 171.287 C 676.929 170.220, 666.484 159.746, 654.243 148.013 C 642.002 136.280, 632.167 126.500, 632.387 126.280 C 632.607 126.060, 635.873 125.444, 639.644 124.912 C 647.919 123.745, 657.279 119.550, 662.864 114.504 C 674.881 103.647, 678.199 79.165, 669.943 62.276 C 665.087 52.342, 656.440 46.472, 642.227 43.460 C 632.901 41.484, 575.654 41.431, 572.110 43.396 M 849.761 43.974 C 848.269 45.147, 846.568 47.771, 845.980 49.804 C 845.260 52.296, 845.008 73.362, 845.206 114.500 L 845.500 175.500 851.458 175.806 C 858.696 176.178, 861.441 175.559, 864.025 172.975 C 865.942 171.058, 866 169.438, 866 117.691 C 866 75.589, 866.273 64.009, 867.297 62.608 C 868.488 60.980, 870.517 60.862, 892.047 61.169 C 913.282 61.472, 915.926 61.700, 920 63.585 C 929.847 68.140, 933.634 76.693, 932.805 92.501 C 932.212 103.799, 929.574 108.464, 921.500 112.497 C 915.602 115.444, 915.188 115.501, 897.250 115.857 L 879 116.219 879 125.739 L 879 135.259 898.250 134.712 C 924.057 133.980, 933.926 131.126, 943.390 121.663 C 953.158 111.894, 957.271 93.377, 953.560 75.869 C 950.191 59.978, 941.139 50.122, 925 44.775 C 918.992 42.784, 916.004 42.591, 885.487 42.230 C 853.003 41.846, 852.430 41.874, 849.761 43.974 M 1139.100 44.048 C 1126.628 47.314, 1118.281 53.734, 1113.809 63.500 C 1110.580 70.552, 1110.542 83.654, 1113.733 89.653 C 1118.250 98.147, 1123.075 100.852, 1165.228 118.532 C 1179.929 124.697, 1193.024 130.441, 1194.329 131.296 C 1197.799 133.570, 1200.287 139.402, 1199.449 143.297 C 1198.221 148.997, 1196.150 151.748, 1191.277 154.148 C 1186.645 156.429, 1185.544 156.515, 1154.952 157 C 1126.996 157.443, 1123.097 157.701, 1120.710 159.268 C 1117.852 161.143, 1113.443 168.858, 1112.853 173.014 L 1112.500 175.500 1149.500 175.500 C 1184.884 175.500, 1186.806 175.404, 1193.500 173.292 C 1205.848 169.396, 1212.578 163.825, 1216.871 153.945 C 1221.304 143.743, 1220.396 131.278, 1214.675 123.818 C 1210.390 118.230, 1204.737 115.292, 1168.516 99.825 C 1133.769 84.988, 1130.545 82.977, 1130.545 76.141 C 1130.545 71.095, 1133.183 67.347, 1139.089 64 C 1143.447 61.530, 1143.848 61.494, 1172.500 61 C 1204.703 60.445, 1205.211 60.345, 1210.388 53.559 C 1212.759 50.450, 1216 44.082, 1216 42.532 C 1216 42.239, 1200.362 42.025, 1181.250 42.055 C 1150.195 42.104, 1145.713 42.316, 1139.100 44.048 M 1234.826 44.255 C 1232.805 45.490, 1230.206 47.711, 1229.049 49.192 C 1226.893 51.952, 1224 58.126, 1224 59.968 C 1224 60.650, 1232.635 61, 1249.492 61 L 1274.984 61 1275.242 118.250 L 1275.500 175.500 1283.840 175.500 C 1296.260 175.500, 1295.535 177.507, 1296.337 140.928 C 1296.702 124.288, 1297 99.498, 1297 85.837 L 1297 61 1315.935 61 C 1335.565 61, 1338.757 60.488, 1342.847 56.683 C 1345.916 53.829, 1349 47.742, 1349 44.540 L 1349 42 1293.750 42.005 L 1238.500 42.010 1234.826 44.255 M 745.344 60.041 C 730.539 62.970, 722.085 71.583, 717.902 88 C 716.022 95.377, 716.006 122.531, 717.878 130 C 721.232 143.381, 728.085 151.925, 738.853 156.148 C 743.711 158.054, 746.456 158.367, 758.500 158.391 C 775.993 158.425, 781.674 156.625, 789.620 148.528 C 797.805 140.188, 800.978 129.113, 800.992 108.838 C 801.018 73.174, 788.370 58.691, 757.566 59.110 C 753.130 59.170, 747.630 59.589, 745.344 60.041 M 1019.045 60.028 C 1004.656 63.056, 996.251 71.765, 992.309 87.729 C 989.869 97.614, 989.890 121.119, 992.347 130.707 C 995.889 144.524, 1003.395 153.218, 1014.816 156.731 C 1022.889 159.213, 1043.403 159.190, 1051 156.690 C 1062.861 152.786, 1070.103 144.151, 1073.460 129.907 C 1075.435 121.529, 1075.475 97.908, 1073.531 88.730 C 1070.534 74.587, 1062.727 64.860, 1051.598 61.404 C 1045.548 59.525, 1025.468 58.676, 1019.045 60.028 M 1324.775 156.509 C 1321.314 158.451, 1320 160.924, 1320 165.500 C 1320 170.230, 1321.353 172.614, 1325.151 174.578 C 1331.669 177.949, 1340 172.821, 1340 165.439 C 1340 158.187, 1331.096 152.965, 1324.775 156.509 M 1325 160 C 1322.613 162.387, 1322.323 168.193, 1324.500 170 C 1325.803 171.081, 1326 170.507, 1326 165.622 L 1326 160 1329.378 160 C 1333.929 160, 1335.759 162.213, 1333.971 165.554 C 1332.923 167.512, 1332.900 168.300, 1333.862 169.262 C 1335.341 170.741, 1336.960 168.730, 1336.985 165.385 C 1337.029 159.325, 1329.195 155.805, 1325 160 M 1327.787 170 C 1327.405 172.600, 1327.657 173, 1329.673 173 C 1332.361 173, 1332.383 172.935, 1330.839 169.547 C 1329.307 166.184, 1328.325 166.330, 1327.787 170" stroke="none" fill="#1c2434" fill-rule="evenodd"/><path d="M 113 69.920 C 78.075 85.739, 48.712 99.428, 47.750 100.340 C 45.427 102.544, 45.478 108.218, 47.841 110.356 C 49.133 111.525, 57.828 113.357, 76.996 116.499 C 92.019 118.962, 104.566 121.233, 104.879 121.546 C 105.192 121.858, 106.451 133.451, 107.677 147.307 C 109.879 172.186, 109.940 172.529, 112.594 174.823 C 115.397 177.246, 119.166 177.189, 121.697 174.684 C 122.355 174.033, 137.092 145.896, 154.447 112.157 C 174.546 73.081, 186 49.759, 186 47.907 C 186 44.211, 182.802 40.977, 179.250 41.080 C 177.738 41.124, 147.925 54.102, 113 69.920 M 143.009 68.124 C 127.339 75.251, 114.112 81.488, 113.616 81.984 C 112.907 82.693, 118.513 155.846, 119.339 156.673 C 119.441 156.774, 126.493 143.282, 135.012 126.691 C 143.530 110.100, 155.297 87.182, 161.161 75.763 C 167.025 64.343, 171.750 55.037, 171.661 55.083 C 171.572 55.128, 158.679 60.997, 143.009 68.124 M 82.784 95.311 C 73.041 99.761, 65.180 103.514, 65.317 103.651 C 65.902 104.235, 103.350 109.983, 103.779 109.554 C 104.668 108.666, 102.503 87.657, 101.500 87.438 C 100.950 87.318, 92.528 90.861, 82.784 95.311" stroke="none" fill="#04b4fc" fill-rule="evenodd"/></svg>